<svg preserveAspectRatio="none" width="100%" height="100%" overflow="visible" style="display: block;" viewBox="0 0 36.0017 34.2014" fill="none" xmlns="http://www.w3.org/2000/svg">
<g id="group relative">
<path id="Vector" fill-rule="evenodd" clip-rule="evenodd" d="M21.96 25.0574V9.10939C23.868 9.57739 25.56 10.6574 26.856 12.1334C28.08 13.5014 28.728 15.2654 28.728 17.1014C28.728 18.9374 28.08 20.7014 26.856 22.0694C25.56 23.5454 23.832 24.5894 21.96 25.0574Z" fill="var(--fill-0, #EF7D00)"/>
<path id="Vector_2" fill-rule="evenodd" clip-rule="evenodd" d="M21.96 33.4814C21.564 33.4814 21.24 33.2294 21.132 32.8334C21.096 32.6174 21.132 32.4014 21.24 32.1854C21.384 32.0054 21.564 31.8974 21.78 31.8254C22.284 31.7174 34.488 28.9454 34.344 16.3094C33.552 4.71739 22.284 2.44939 21.816 2.37739C21.492 2.34139 21.24 2.12539 21.132 1.83739C21.024 1.54939 21.06 1.22539 21.276 0.973392C21.492 0.757392 21.816 0.649392 22.104 0.721392C22.248 0.721392 35.172 3.27739 36 16.2374C36.18 30.3134 22.284 33.4454 22.14 33.4814H21.96Z" fill="var(--fill-0, #3D3833)"/>
<path id="Vector_3" fill-rule="evenodd" clip-rule="evenodd" d="M18.936 34.2014C18.72 34.2014 18.504 34.1294 18.36 33.9494L8.352 24.1574H0.828C0.612 24.1574 0.396 24.0854 0.252 23.9414C0.072 23.7614 0 23.5454 0 23.3294V10.9814C0 10.7654 0.072 10.5494 0.252 10.3694C0.396 10.2254 0.612 10.1174 0.828 10.1174H8.352L18.288 0.253392C18.54 0.0013922 18.9 -0.0706078 19.188 0.0733922C19.512 0.181392 19.728 0.505392 19.728 0.829392V33.3734C19.728 33.7334 19.512 34.0214 19.224 34.1654C19.116 34.1654 19.044 34.2014 18.936 34.2014ZM1.8 22.4294H8.856C9.072 22.4294 9.252 22.5014 9.432 22.6454L18.144 31.3574V2.84539L9.396 11.5214C9.252 11.7014 9.036 11.7734 8.82 11.7734H1.728L1.8 22.4294Z" fill="var(--fill-0, #3D3833)"/>
</g>
</svg>
