<svg preserveAspectRatio="none" width="100%" height="100%" overflow="visible" style="display: block;" viewBox="0 0 18.72 36" fill="none" xmlns="http://www.w3.org/2000/svg">
<g id="group relative">
<path id="Vector" fill-rule="evenodd" clip-rule="evenodd" d="M7.2 16.56H11.52V14.184H9.36V12.42H11.52V8.532H9.36V6.768H11.52V5.076C11.52 4.464 11.304 3.924 10.908 3.492C10.476 3.096 9.972 2.88 9.36 2.88C8.748 2.88 8.244 3.096 7.812 3.492C7.416 3.924 7.2 4.464 7.2 5.076V16.56Z" fill="var(--fill-0, white)"/>
<g id="group relative_2">
<path id="Vector_2" fill-rule="evenodd" clip-rule="evenodd" d="M14.976 32.256C13.392 33.804 11.556 34.56 9.36 34.56C7.128 34.56 5.328 33.804 3.744 32.256C2.196 30.708 1.44 28.872 1.44 26.64C1.44 25.308 1.728 24.012 2.34 22.824C2.952 21.636 3.78 20.808 4.968 20.232L5.364 20.052V5.436C5.364 4.32 5.76 3.384 6.552 2.592C7.344 1.8 8.28 1.44 9.36 1.44C10.476 1.44 11.376 1.8 12.168 2.592C12.96 3.384 13.356 4.32 13.356 5.436V7.524H8.28V8.928H13.356V13.032H8.28V14.472H13.356V20.052L13.752 20.232C14.904 20.808 15.768 21.636 16.38 22.824C16.992 24.012 17.28 25.308 17.28 26.64C17.28 28.872 16.524 30.708 14.976 32.256ZM17.64 22.176C16.992 20.88 16.02 19.872 14.796 19.152V5.436C14.796 3.924 14.256 2.664 13.212 1.584C12.132 0.54 10.836 0 9.36 0C7.884 0 6.588 0.54 5.508 1.584C4.464 2.664 3.924 3.924 3.924 5.436V19.152C2.7 19.872 1.728 20.88 1.08 22.176C0.36 23.544 0 25.056 0 26.64C0 29.232 0.936 31.428 2.736 33.264C4.572 35.064 6.768 36 9.36 36C11.952 36 14.148 35.064 15.984 33.264C17.784 31.428 18.72 29.232 18.72 26.64C18.72 25.056 18.36 23.544 17.64 22.176Z" fill="var(--fill-0, #3F3A35)"/>
<path id="Vector_3" fill-rule="evenodd" clip-rule="evenodd" d="M14.148 31.536C11.52 34.2 7.164 34.164 4.464 31.464C1.8 28.764 1.764 24.444 4.428 21.78C7.056 19.152 11.412 19.188 14.112 21.852C16.776 24.552 16.812 28.872 14.148 31.536Z" fill="var(--fill-0, #EF7D00)"/>
</g>
</g>
</svg>
